<svg xmlns="http://www.w3.org/2000/svg" width="1168" height="987" viewBox="0 0 1168 987">
    <defs>
        <style>
            .cls-1 {
            fill: #37bef0;
            fill-rule: evenodd;
            }
        </style>
    </defs>
    <path id="rustjson" data-name="rustjson" class="cls-1"
          d="M406,127V249.992c-47.447-.359-88.271,1.994-106,31-10.139,16.587-3.186,40.82-7,65-9.047,57.349-.881,122.237-16,172.989-9.737,32.688-31.377,63.626-56,82l-27,19v1c52.792,21.04,80.583,73.968,92,136.991,9.272,51.185-7.726,174.381,14,205.987,16.938,24.64,62.342,27.412,103,28v122c-128.334,1.15-219.48-13.32-247-112C120.3,873.947,201.452,685.733,34,681.965l1-124.992c169.29-.428,95.616-183.492,129-314.98C189.4,141.935,280.321,126.569,406,127Zm422,2c127.2-1.123,215.8,12.323,245,107.993,41.02,134.374-48.23,311.7,129,318.98q-0.495,63.489-1,126.992c-172.77.377-93.63,196.58-131,323.975-27.21,92.76-119.817,106.42-240,106V989.945c45.491,0.331,87.331-1.671,105-29,10.391-16.071,4.134-37.729,8-62q4.5-65.488,9-130.992c12.579-65.794,38.66-122.649,93-145.99-0.67-1-1.33-2-2-3-57.714-20.658-84.952-76.469-98-142.991-9.12-46.5,5.241-166.125-14-195.988-17.257-26.783-58.772-29.361-103-29V129ZM614,360.985h8l18,25c12.41-2.7,16.707-23.773,30-20,10.73,6.237,6.406,26.979,21,29,4.262-6.482,16.661-14.85,26-16,7.761,8.339,6.546,22.913,12,34h1c13.12-1.648,19.825-10.288,32-10q1,1.5,2,3c4.166,6.971-.151,22.747,3,31l2,3c12.853-1.677,23.231-8.37,35-3,1.615,12.659-3.719,20.932-5,33l3,3c14.422-.282,25.058-0.617,34,3q-0.5,6-1,12c-4.2,2.976-3.928,6.771-6,12-6.592,16.632,18.563,13.683,30,20v5c-1.964,10.726-11.476,16.968-16,26,5.99,8.039,33.879,9.908,30,23-5.167,10.448-18.125,12.767-20,26,10.893,5.963,27.788,11.839,23,28-8.07,2.935-17.865,8.843-23,15,2.98,14.058,18.3,14.021,21,29q-0.5,1.5-1,3c-8.37,3.993-24.163,8.039-30,15l17,27q-0.5,2.5-1,5c-9.01,4.33-21.432,6.349-33,9v6l7,17c13.853,23.285-21.864,8.742-32,17l-2,1c1.475,9.624,10.565,27.848,2,34-9.657,4.623-27.689-8.69-34-1q-1.5,16.5-3,33l-2,1c-14.322-.706-22.522-13.262-35-8-0.658,13.154-2.283,27.363-12,32-5.774-2.571-23-19.131-29-17-1.311.466-12.634,26.928-17,31l-3-1c-8.866-2.4-16.56-12.981-21-20-4.513.215-5.391,0.707-8,2a71.8,71.8,0,0,1-16,23l-6-1c-7.976-3.923-13.524-16.584-18-24-4.513.215-5.391,0.707-8,2-3.733,8.052-11.947,14.054-19,19l-3-1c-12.287-5.806-7.835-29.586-23-29-3.889,6.748-15.5,12.874-23,16l-6-3q-4-15.5-8-31c-12.448,1.041-21.744,12.94-33,9-1.923-1.392-.6-0.1-2-2-4.166-6.97.151-22.747-3-31l-2-3c-12.687,1.2-21.793,6.821-34,4-3.669-10.984,6.651-27.51,2-35v-2c-10.417.393-27.318,1.861-33-3-2.215-2.17-2.1-4.305-2-9,4.105-6.98,8.707-14.325,10-24l-2-3c-11.1-.994-26.5-2.025-31-10l-1-1c2.288-11.892,11.889-19.089,17-29-7.635-6.594-24.776-8.207-30-17q-0.5-2.5-1-5l21-22v-4l-23-16c-9.649-13.908,19.882-19.485,23-30-6.479-9.277-19.341-13.311-21-27,7.144-6.765,18.076-11.155,29-14,2.994-14.7-17.07-19.836-14-33,5.46-9.893,22.675-7.193,33-12-1.013-14.685-9.378-18.373-10-34,8.411-3.163,25.955-.4,36-5l1-2c-1.871-10.2-6.822-19.8-5-31l4-3c12.591-2.768,24.319,7.284,34,2-0.217-11.323-.343-24.623,2-33l5-2,30,11,2-2c0.38-11.73,2.772-23.976,8-31l3-1c13.494,2.732,16.581,14.188,31,16,3.316-10.055,8.064-23.159,15-30,16.754,1.991,15.191,18.653,31,21Zm0,47c-4.219,2.717-6.71,3.192-9,8-1.555,5.293-.3,10.324,1,15,9.658,7.046,17.99,5.221,25-3C631.807,413.774,627.4,407.925,614,407.982Zm-37,26c-39.031,17.772-73.56,25.646-98,57,69.148-.762,203.911-10.9,243,17,21.718,15.5,37.475,46.049,19,76-6.571,10.65-19.6,17.943-29,26,7.364,9.195,17.619,15.755,23,27,4.669,9.756,4.683,21.753,10,30,13.948,4.658,22.859,4.791,35-3,1.862-6.836,2.819-25.954,7-32l20-1q-0.5-15-1-30c-13.863-6.229-29.072-11.745-41-20-6.571-23.331,13.79-36.65,16-58-24.852-39.01-69.557-86.678-129-88.994-5.673,7.985-26.359,33.264-40,28-10.282-4.822-21.967-18.641-28-28h-7ZM429,547.973l-8,6q-1,6-2,12c1.687,3.674,2.5,5.985,6,8,6.089,4.67,13.516,2.5,19-1,2.573-5.877,4.155-8.827,3-17l-9-8h-9Zm369,0-9,6q-1,6.5-2,13,2.5,4,5,8a31.884,31.884,0,0,0,16,1c5.049-3.676,7.6-7.511,8-16C811.587,553,809,548.5,798,547.973ZM488,669.966V550.973H464c4.017,7.837,9.013,14.982,7,26-8.813,11.675-27.837,15.824-41,23-1.116,19.152-4.314,58.269,7,69Zm88-83.995c25.844,0.636,75.256,6.344,84-11,1.362-2.551,1.719-4.689,1-7-3.846-19.74-60.213-22.113-85-15v33Zm0,54q0.5,16.5,1,33c15.144-1.305,37.745-3.5,48,3,0.416,13.867,4.353,49.833-4,56l-154,1,1,2c7.19,4.52,7.765,13.266,18,15,10.85-4.168,26.217-7.63,38-5,11.275,9.624,6.323,39.772,18,48,38.443,27.076,112.418,11.308,152,0,4.878-15.235,7.209-34.751,15-47,15.224-3.594,31.607,8.3,44,4,6.8-3.205,11.7-11.269,16-17-22.366,0-80.161,4.773-92-5-21.358-17.631-13.476-68.68-36-83.995C628.658,635.576,595.229,639.871,576,639.968ZM499,764.96c-7.01,4.638-12.252,8.924-10,20l9,9h10l9-9c0.232-8.75-1.328-11.875-4-17Zm228,1-4,3c-5.385,3.308-6.639,9.532-5,17l9,8c4.823,1.353,8.572.23,13-1,3.335-7.094,5.961-5.988,6-17-3.75-3.014-4.3-6.621-9-9Z"
          transform="translate(-34 -127)"/>
</svg>
